<?xml version="1.0" encoding="UTF-8" standalone="no"?>
<!-- Created with Inkscape (http://www.inkscape.org/) -->

<svg
   xmlns:dc="http://purl.org/dc/elements/1.1/"
   xmlns:cc="http://creativecommons.org/ns#"
   xmlns:rdf="http://www.w3.org/1999/02/22-rdf-syntax-ns#"
   xmlns:svg="http://www.w3.org/2000/svg"
   xmlns="http://www.w3.org/2000/svg"
   xmlns:sodipodi="http://sodipodi.sourceforge.net/DTD/sodipodi-0.dtd"
   xmlns:inkscape="http://www.inkscape.org/namespaces/inkscape"
   width="602.51282mm"
   height="155.31586mm"
   viewBox="0 0 2134.888 550.33177"
   id="svg4309"
   version="1.1"
   inkscape:version="0.91 r"
   sodipodi:docname="logo.svg">
  <defs
     id="defs4311" />
  <sodipodi:namedview
     id="base"
     pagecolor="#ffffff"
     bordercolor="#666666"
     borderopacity="1.0"
     inkscape:pageopacity="0.0"
     inkscape:pageshadow="2"
     inkscape:zoom="0.35355339"
     inkscape:cx="487.16177"
     inkscape:cy="-232.43005"
     inkscape:document-units="px"
     inkscape:current-layer="text4759"
     showgrid="false"
     inkscape:window-width="1920"
     inkscape:window-height="1176"
     inkscape:window-x="1920"
     inkscape:window-y="0"
     inkscape:window-maximized="1"
     showguides="true"
     inkscape:guide-bbox="true"
     fit-margin-top="0"
     fit-margin-left="0"
     fit-margin-right="0"
     fit-margin-bottom="0">
    <sodipodi:guide
       position="75.000002,74.999931"
       orientation="1,0"
       id="guide4745"
       inkscape:label=""
       inkscape:color="rgb(0,0,255)" />
    <sodipodi:guide
       position="275,684.47928"
       orientation="1,0"
       id="guide4747"
       inkscape:label=""
       inkscape:color="rgb(0,0,255)" />
    <sodipodi:guide
       position="475.00002,476.58989"
       orientation="1,0"
       id="guide4749"
       inkscape:label=""
       inkscape:color="rgb(0,0,255)" />
    <sodipodi:guide
       position="275,274.99993"
       orientation="0,1"
       id="guide4751"
       inkscape:label=""
       inkscape:color="rgb(0,0,255)" />
    <sodipodi:guide
       position="75.000002,74.999931"
       orientation="0,1"
       id="guide4753"
       inkscape:label=""
       inkscape:color="rgb(0,0,255)" />
    <sodipodi:guide
       position="275,474.99992"
       orientation="0,1"
       id="guide4755"
       inkscape:label=""
       inkscape:color="rgb(0,0,255)" />
    <sodipodi:guide
       position="275,549.99991"
       orientation="0,1"
       id="guide4763"
       inkscape:label=""
       inkscape:color="rgb(0,0,255)" />
    <sodipodi:guide
       position="405.87932,-6.7750318e-05"
       orientation="0,1"
       id="guide4765"
       inkscape:label=""
       inkscape:color="rgb(0,0,255)" />
    <sodipodi:guide
       position="625.00001,450.99992"
       orientation="1,0"
       id="guide4931"
       inkscape:label=""
       inkscape:color="rgb(0,0,255)" />
    <sodipodi:guide
       position="275,274.99993"
       orientation="-0.70710678,0.70710678"
       id="guide5668" />
    <sodipodi:guide
       position="275,474.99992"
       orientation="-0.70710678,0.70710678"
       id="guide5670" />
    <sodipodi:guide
       position="475.00002,274.99993"
       orientation="-0.70710678,0.70710678"
       id="guide5672" />
    <sodipodi:guide
       position="475.00002,74.999931"
       orientation="-0.70710678,0.70710678"
       id="guide5674" />
    <sodipodi:guide
       position="75.000002,474.99992"
       orientation="0.70710678,0.70710678"
       id="guide5676" />
    <sodipodi:guide
       position="275,474.99992"
       orientation="0.70710678,0.70710678"
       id="guide5678" />
    <sodipodi:guide
       position="475.00002,474.99992"
       orientation="0.70710678,0.70710678"
       id="guide5680" />
    <sodipodi:guide
       position="275,74.999931"
       orientation="0.70710678,0.70710678"
       id="guide5682" />
    <sodipodi:guide
       position="750.00002,549.99991"
       orientation="1,0"
       id="guide10518" />
  </sodipodi:namedview>
  <metadata
     id="metadata4314">
    <rdf:RDF>
      <cc:Work
         rdf:about="">
        <dc:format>image/svg+xml</dc:format>
        <dc:type
           rdf:resource="http://purl.org/dc/dcmitype/StillImage" />
        <dc:title />
      </cc:Work>
    </rdf:RDF>
  </metadata>
  <g
     inkscape:label="Layer 1"
     inkscape:groupmode="layer"
     id="layer1"
     transform="translate(0,-502.03042)">
    <circle
       style="fill:#ff6600;fill-opacity:1;fill-rule:evenodd;stroke:#ffffff;stroke-width:0;stroke-miterlimit:4;stroke-dasharray:none;stroke-opacity:1"
       id="path4859"
       cx="275"
       cy="777.36218"
       r="74.999992" />
    <circle
       cy="977.36218"
       cx="475"
       id="circle4861"
       style="fill:#038ff4;fill-opacity:1;fill-rule:evenodd;stroke:none;stroke-width:0;stroke-miterlimit:4;stroke-dasharray:none;stroke-opacity:1"
       r="75" />
    <flowRoot
       xml:space="preserve"
       id="flowRoot4161"
       style="font-style:normal;font-weight:normal;font-size:40px;line-height:125%;font-family:sans-serif;letter-spacing:0px;word-spacing:0px;fill:#000000;fill-opacity:1;stroke:none;stroke-width:1px;stroke-linecap:butt;stroke-linejoin:miter;stroke-opacity:1"><flowRegion
         id="flowRegion4163"><rect
           id="rect4165"
           width="160"
           height="139"
           x="426"
           y="90.362206" /></flowRegion><flowPara
         id="flowPara4167" /></flowRoot>    <circle
       style="fill:#038ff4;fill-opacity:1;fill-rule:evenodd;stroke:#ffffff;stroke-width:0;stroke-miterlimit:4;stroke-dasharray:none;stroke-opacity:1"
       id="circle4174"
       cx="75"
       cy="977.36218"
       r="74.999992" />
    <circle
       cy="777.36218"
       cx="75"
       id="circle4176"
       style="fill:#038ff4;fill-opacity:1;fill-rule:evenodd;stroke:none;stroke-width:0;stroke-miterlimit:4;stroke-dasharray:none;stroke-opacity:1"
       r="75" />
    <text
       sodipodi:linespacing="125%"
       id="text4178"
       y="-204.6378"
       x="-320"
       style="font-style:normal;font-weight:normal;font-size:152px;line-height:125%;font-family:sans-serif;letter-spacing:0px;word-spacing:0px;fill:#000000;fill-opacity:1;stroke:none;stroke-width:1px;stroke-linecap:butt;stroke-linejoin:miter;stroke-opacity:1"
       xml:space="preserve"><tspan
         y="-204.6378"
         x="-320"
         id="tspan4180"
         sodipodi:role="line" /></text>
    <circle
       cy="577.36218"
       cx="275"
       id="circle4212"
       style="fill:#038ff4;fill-opacity:1;fill-rule:evenodd;stroke:none;stroke-width:0;stroke-miterlimit:4;stroke-dasharray:none;stroke-opacity:1"
       r="75" />
    <circle
       style="fill:#038ff4;fill-opacity:1;fill-rule:evenodd;stroke:none;stroke-width:0;stroke-miterlimit:4;stroke-dasharray:none;stroke-opacity:1"
       id="circle4214"
       cx="475"
       cy="577.36218"
       r="75" />
    <circle
       cy="977.36218"
       cx="275"
       id="circle4216"
       style="fill:#038ff4;fill-opacity:1;fill-rule:evenodd;stroke:none;stroke-width:0;stroke-miterlimit:4;stroke-dasharray:none;stroke-opacity:1"
       r="75" />
    <circle
       cy="777.36218"
       cx="475"
       id="circle4246"
       style="fill:#038ff4;fill-opacity:1;fill-rule:evenodd;stroke:#ffffff;stroke-width:0;stroke-miterlimit:4;stroke-dasharray:none;stroke-opacity:1"
       r="74.999992" />
    <circle
       style="fill:#038ff4;fill-opacity:1;fill-rule:evenodd;stroke:#ffffff;stroke-width:0;stroke-miterlimit:4;stroke-dasharray:none;stroke-opacity:1"
       id="circle4248"
       cx="75"
       cy="577.36218"
       r="74.999992" />
    <path
       style="fill:none;fill-rule:evenodd;stroke:#038ff4;stroke-width:45;stroke-linecap:butt;stroke-linejoin:miter;stroke-miterlimit:4;stroke-dasharray:none;stroke-opacity:1"
       d="m 275,577.3622 -200,200 200,208.53197 200,-208.53197 z"
       id="path4757"
       inkscape:connector-curvature="0" />
    <g
       id="text4759">
      <path
         d="m 795.45727,628.05999 -45.72236,0 0,308.91901 45.72236,0 0,-164.13154 c 5.27566,-60.96314 45.72236,-101.40985 110.78879,-100.23748 l 0,-46.30854 c -52.17038,0.58618 -90.27235,25.20592 -110.78879,70.34209 l 0,-68.58354 z"
         id="path11397"
         style="fill:#038ff4;fill-opacity:1" />
      <path
         d="m 1144.0628,936.979 44.55,0 -0.5862,-203.99206 c -0.5862,-66.2388 -42.7914,-106.6855 -118.9954,-106.6855 -52.7565,0 -86.16904,15.24079 -126.02956,41.61907 l 19.34408,33.41249 c 32.24012,-22.27499 63.89408,-35.17104 97.89278,-35.17104 54.5151,0 82.6519,26.96447 82.6519,72.10064 l 0,18.17171 -101.4098,0 c -72.68686,0.58618 -115.4783,34.58486 -115.4783,88.51379 0,53.34275 41.03289,94.37564 104.927,94.37564 49.2394,0 88.5138,-16.41315 113.1335,-49.82565 l 0,47.48091 z M 1039.722,899.46322 c -43.37761,0 -70.92826,-22.27499 -70.92826,-56.27367 0,-33.99868 26.96447,-49.82565 78.54866,-49.82565 l 96.1342,0 0,36.9296 c -11.7237,42.79144 -51.5842,69.16972 -103.7546,69.16972 z"
         id="path11399"
         style="fill:#038ff4;fill-opacity:1" />
      <path
         d="m 1338.7766,936.979 0,-434.94858 -45.7223,0 0,434.94858 45.7223,0 z"
         id="path11401"
         style="fill:#038ff4;fill-opacity:1" />
      <path
         d="m 1620.3465,626.30144 c -53.9289,0 -96.1342,25.20592 -118.9954,68.58354 l 0,-66.82499 -45.7223,0 0,422.63871 45.7223,0 0,-179.9585 c 22.8612,42.79144 65.0665,67.99736 120.1678,67.99736 87.3414,0 147.1322,-63.89407 147.1322,-155.33879 0,-92.61708 -60.9632,-157.09733 -148.3046,-157.09733 z m -8.2066,270.81705 c -65.0664,0 -110.7888,-47.48091 -110.7888,-114.89208 0,-66.82499 45.7224,-114.89208 110.7888,-114.89208 64.4803,0 110.2026,48.65327 110.2026,114.89208 0,66.82498 -45.7223,114.89208 -110.2026,114.89208 z"
         id="path11403"
         style="fill:#038ff4;fill-opacity:1" />
      <path
         d="m 2017.651,626.30144 c -56.8598,0.58618 -99.0651,22.86118 -120.1677,70.92827 l 0,-195.19929 -45.7224,0 0,434.94858 45.7224,0 0,-151.82167 c 0,-66.2388 38.6881,-112.54735 104.3408,-113.13353 54.5151,0 87.3414,32.24012 87.3414,86.75524 l 0,178.19996 45.7223,0 0,-190.50982 c 0,-74.44538 -43.3776,-120.16774 -117.2368,-120.16774 z"
         id="path11405"
         style="fill:#038ff4;fill-opacity:1" />
    </g>
  </g>
</svg>
